<svg width="98" height="115" viewBox="0 0 98 115" fill="none" xmlns="http://www.w3.org/2000/svg">
    <path fill-rule="evenodd" clip-rule="evenodd" d="M58.819 43.365c0-9.368-7.594-16.962-16.962-16.962-9.367 0-16.961 7.594-16.961 16.962 0 9.367 7.594 16.961 16.962 16.961 9.367 0 16.961-7.594 16.961-16.961zm12.721 0c0-16.394-13.29-29.683-29.683-29.683s-29.682 13.29-29.682 29.683 13.29 29.682 29.683 29.682S71.54 59.758 71.54 43.365z" fill="#283A7D"/>
    <path d="M73.548 29.666c-.568 0-1.026-.462-1.06-1.03-.511-8.547-7.353-15.39-15.901-15.901-.568-.034-1.03-.492-1.03-1.06V1.012c0-.568.463-1.03 1.032-1.011C72.162.532 84.69 13.06 85.222 28.635c.02.568-.444 1.03-1.012 1.03H73.548zM82.428 114.444V99.081h4.666v1.573c.918-1.232 2.333-1.94 4.3-1.94 3.565 0 6.003 2.596 6.003 6.843v8.887H92.73v-8.101c0-2.333-.943-3.618-2.7-3.618-1.835 0-2.936 1.442-2.936 3.828v7.891h-4.666zM68.19 114.968c-6.633 0-11.535-4.745-11.535-11.22 0-6.475 4.902-11.22 11.535-11.22s11.535 4.745 11.535 11.22c0 6.475-4.902 11.22-11.535 11.22zm0-4.299c3.88 0 6.764-2.91 6.764-6.921 0-4.037-2.884-6.921-6.764-6.921-3.88 0-6.764 2.884-6.764 6.921 0 4.011 2.884 6.921 6.764 6.921z" fill="#1399D9"/>
    <path d="M44.206 114.444V99.081h4.666v1.573c.918-1.232 2.334-1.94 4.3-1.94.865 0 1.415.053 2.018.263l.053 4.378c-.656-.341-1.468-.525-2.386-.525-2.49 0-3.985 1.416-3.985 3.749v7.865h-4.666zM31.614 114.811c-4.404 0-7.471-3.382-7.471-8.048 0-4.667 3.067-8.049 7.471-8.049 2.018 0 3.487.708 4.404 1.94v-1.573h4.666v15.363h-4.666v-1.573c-.917 1.232-2.386 1.94-4.404 1.94zm.734-3.985c2.28 0 3.749-1.704 3.749-4.063 0-2.36-1.468-4.064-3.749-4.064-2.228 0-3.644 1.704-3.644 4.064 0 2.359 1.416 4.063 3.644 4.063zM11.43 114.968c-6.58 0-11.43-4.745-11.43-11.22 0-6.475 4.85-11.22 11.43-11.22 5.872 0 9.804 3.539 10.67 8.048h-4.824c-.498-2.045-2.674-3.67-5.741-3.67-3.88 0-6.764 2.857-6.764 6.842 0 3.959 2.884 6.842 6.764 6.842 3.067 0 5.584-2.018 5.95-3.958h4.824c-.655 4.299-4.954 8.336-10.88 8.336z" fill="#283A7D"/>
</svg>
