<svg width="91" height="21" viewBox="0 0 91 21" fill="none" xmlns="http://www.w3.org/2000/svg">
    <path d="M76.124 20.434V6.18h4.623v1.46c.909-1.144 2.311-1.8 4.259-1.8 3.532 0 5.947 2.408 5.947 6.349v8.246h-4.622v-7.517c0-2.165-.935-3.357-2.675-3.357-1.818 0-2.91 1.338-2.91 3.552v7.322h-4.622zM63.272 20.435c-6.253 0-10.874-4.321-10.874-10.218C52.398 4.321 57.019 0 63.272 0s10.875 4.32 10.875 10.217-4.622 10.218-10.875 10.218zm0-3.915c3.658 0 6.377-2.65 6.377-6.303 0-3.676-2.719-6.302-6.377-6.302-3.657 0-6.376 2.626-6.376 6.302 0 3.653 2.718 6.303 6.376 6.303zM40.534 20.434V6.18h4.598v1.46c.904-1.144 2.3-1.8 4.236-1.8.853 0 1.395.048 1.99.243l.051 4.062c-.646-.316-1.447-.486-2.35-.486-2.454 0-3.927 1.313-3.927 3.479v7.297h-4.598zM28.895 20.434c-4.211 0-7.144-3.066-7.144-7.298 0-4.231 2.933-7.298 7.144-7.298 1.93 0 3.334.642 4.212 1.76V6.17h4.462v13.93h-4.462v-1.426c-.878 1.118-2.282 1.76-4.212 1.76zm.702-3.613c2.181 0 3.585-1.545 3.585-3.685 0-2.139-1.404-3.684-3.585-3.684-2.13 0-3.484 1.545-3.484 3.684 0 2.14 1.353 3.685 3.484 3.685zM10.637 20.435C4.513 20.435 0 16.114 0 10.217 0 4.321 4.513 0 10.637 0c5.464 0 9.124 3.223 9.929 7.329h-4.489c-.464-1.862-2.488-3.342-5.343-3.342-3.61 0-6.294 2.602-6.294 6.23 0 3.605 2.684 6.231 6.294 6.231 2.855 0 5.197-1.838 5.538-3.605h4.49c-.61 3.915-4.612 7.592-10.125 7.592z" fill="#fff"/>
</svg>
