<svg width="110" height="32" viewBox="0 0 110 32" fill="none" xmlns="http://www.w3.org/2000/svg">
    <path d="M98.542 25.904V14.742h3.572v1.143c.702-.895 1.786-1.41 3.291-1.41 2.729 0 4.595 1.886 4.595 4.972v6.457h-3.572V20.02c0-1.695-.722-2.629-2.067-2.629-1.404 0-2.247 1.048-2.247 2.781v5.733h-3.572zM88.611 25.905c-4.832 0-8.403-3.383-8.403-8s3.571-8 8.403-8c4.832 0 8.403 3.383 8.403 8s-3.571 8-8.403 8zm0-3.066c2.826 0 4.927-2.074 4.927-4.934 0-2.879-2.1-4.935-4.927-4.935-2.826 0-4.927 2.056-4.927 4.935 0 2.86 2.1 4.934 4.927 4.934z" fill="#1399D9"/>
    <path d="M71.042 25.904V14.742h3.552v1.143c.699-.895 1.777-1.41 3.274-1.41.658 0 1.078.039 1.537.191l.04 3.181c-.5-.247-1.118-.38-1.817-.38-1.896 0-3.034 1.028-3.034 2.723v5.714h-3.552zM62.048 25.904c-3.254 0-5.52-2.4-5.52-5.714 0-3.313 2.266-5.714 5.52-5.714 1.492 0 2.577.502 3.254 1.377v-1.117h3.448v10.908h-3.448v-1.117c-.677.875-1.762 1.377-3.254 1.377zm.543-2.829c1.685 0 2.77-1.21 2.77-2.885 0-1.675-1.085-2.885-2.77-2.885-1.647 0-2.693 1.21-2.693 2.885 0 1.675 1.046 2.885 2.693 2.885zM47.94 25.905c-4.73 0-8.218-3.383-8.218-8s3.487-8 8.219-8c4.222 0 7.05 2.523 7.672 5.738h-3.469c-.358-1.458-1.922-2.617-4.128-2.617-2.79 0-4.863 2.038-4.863 4.879 0 2.822 2.073 4.878 4.863 4.878 2.206 0 4.015-1.439 4.28-2.822h3.468c-.472 3.065-3.563 5.944-7.823 5.944z" fill="#283A7D"/>
    <path fill-rule="evenodd" clip-rule="evenodd" d="M20.407 19.048c0-4.088-3.323-7.402-7.42-7.402-4.1 0-7.422 3.314-7.422 7.402 0 4.087 3.323 7.401 7.421 7.401 4.098 0 7.42-3.314 7.42-7.401zm5.565 0c0-7.154-5.814-12.953-12.986-12.953C5.814 6.095 0 11.895 0 19.048S5.814 32 12.986 32c7.172 0 12.986-5.799 12.986-12.952z" fill="#283A7D"/>
    <path d="M26.973 12.953a.472.472 0 0 1-.464-.45c-.224-3.732-3.22-6.72-6.961-6.943a.472.472 0 0 1-.45-.462V.442c0-.248.202-.45.45-.441 6.818.232 12.302 5.702 12.535 12.502a.439.439 0 0 1-.443.45h-4.668z" fill="#1399D9"/>
</svg>
