<svg width="110" height="32" viewBox="0 0 110 32" fill="none" xmlns="http://www.w3.org/2000/svg">
    <path d="M98.541 25.904V14.742h3.572v1.143c.702-.895 1.786-1.41 3.291-1.41 2.729 0 4.595 1.886 4.595 4.972v6.457h-3.572v-5.886c0-1.695-.722-2.628-2.067-2.628-1.404 0-2.247 1.047-2.247 2.78v5.734h-3.572zM88.61 25.905c-4.83 0-8.402-3.384-8.402-8 0-4.617 3.571-8 8.403-8 4.831 0 8.403 3.383 8.403 8 0 4.616-3.572 8-8.403 8zm0-3.066c2.827 0 4.928-2.074 4.928-4.934 0-2.879-2.1-4.935-4.927-4.935-2.827 0-4.927 2.056-4.927 4.935 0 2.86 2.1 4.934 4.927 4.934z" fill="#B7B7B9"/>
    <path d="M71.041 25.904V14.742h3.553v1.143c.698-.895 1.776-1.41 3.273-1.41.659 0 1.078.039 1.537.191l.04 3.181c-.5-.248-1.118-.38-1.817-.38-1.896 0-3.033 1.028-3.033 2.723v5.714H71.04zM62.048 25.904c-3.254 0-5.52-2.401-5.52-5.714 0-3.313 2.266-5.714 5.52-5.714 1.491 0 2.576.502 3.254 1.377v-1.117h3.448v10.908h-3.448v-1.117c-.678.875-1.763 1.377-3.254 1.377zm.542-2.83c1.685 0 2.77-1.209 2.77-2.884 0-1.675-1.085-2.885-2.77-2.885-1.646 0-2.692 1.21-2.692 2.885 0 1.675 1.046 2.885 2.692 2.885zM47.94 25.904c-4.731 0-8.218-3.383-8.218-8 0-4.616 3.487-8 8.218-8 4.223 0 7.05 2.524 7.672 5.739h-3.468c-.358-1.458-1.923-2.617-4.128-2.617-2.79 0-4.864 2.037-4.864 4.878 0 2.823 2.074 4.879 4.864 4.879 2.205 0 4.015-1.44 4.279-2.822h3.468c-.47 3.065-3.562 5.944-7.823 5.944z" fill="#949497"/>
    <path fill-rule="evenodd" clip-rule="evenodd" d="M20.407 19.047c0-4.087-3.323-7.401-7.42-7.401-4.1 0-7.422 3.314-7.422 7.401 0 4.088 3.323 7.402 7.421 7.402 4.098 0 7.42-3.314 7.42-7.402zm5.565 0c0-7.153-5.814-12.952-12.986-12.952C5.814 6.095 0 11.894 0 19.047 0 26.201 5.814 32 12.986 32c7.172 0 12.986-5.8 12.986-12.953z" fill="#949497"/>
    <path d="M26.973 12.952a.472.472 0 0 1-.464-.449c-.224-3.732-3.219-6.72-6.96-6.943a.472.472 0 0 1-.451-.463V.442c0-.248.202-.45.45-.442 6.818.232 12.303 5.703 12.536 12.502a.439.439 0 0 1-.443.45h-4.668z" fill="#B7B7B9"/>
</svg>
