<svg width="17" height="17" viewBox="0 0 17 17" fill="none" xmlns="http://www.w3.org/2000/svg">
<path fill-rule="evenodd" clip-rule="evenodd" d="M10.814 10.1196C10.814 7.94774 9.05344 6.1871 6.88165 6.1871C4.70986 6.1871 2.94928 7.94774 2.94928 10.1196C2.94928 12.2915 4.70986 14.0521 6.88165 14.0521C9.05344 14.0521 10.814 12.2915 10.814 10.1196ZM13.7633 10.1196C13.7633 6.31885 10.6823 3.23773 6.88165 3.23773C3.08102 3.23773 -4.98632e-07 6.31885 -3.21224e-07 10.1196C-1.43817e-07 13.9203 3.08102 17.0015 6.88165 17.0015C10.6823 17.0015 13.7633 13.9203 13.7633 10.1196Z" fill="#283A7D"/>
<path d="M14.2925 6.88086C14.1606 6.88086 14.0545 6.77372 14.0466 6.64213C13.928 4.65946 12.3408 3.07244 10.3579 2.95377C10.2263 2.94589 10.1191 2.83978 10.1191 2.70795L10.1191 0.234683C10.1191 0.102855 10.2265 -0.00443471 10.3583 6.19754e-05C13.971 0.123351 16.8774 3.02943 17.0007 6.64175C17.0051 6.7735 16.8978 6.88086 16.766 6.88086L14.2925 6.88086Z" fill="#1399D9"/>
</svg>
