<svg width="80" height="19" viewBox="0 0 80 19" fill="none" xmlns="http://www.w3.org/2000/svg">
    <path d="M67.023 17.82V5.33h3.795v1.279c.746-1.002 1.897-1.577 3.496-1.577 2.899 0 4.881 2.11 4.881 5.563v7.226h-3.794v-6.586c0-1.898-.768-2.942-2.196-2.942-1.492 0-2.387 1.172-2.387 3.112v6.416h-3.795zM55.447 18.247c-5.394 0-9.38-3.859-9.38-9.124 0-5.265 3.986-9.123 9.38-9.123 5.392 0 9.379 3.858 9.379 9.123 0 5.265-3.986 9.124-9.38 9.124zm0-3.496c3.154 0 5.5-2.366 5.5-5.628 0-3.282-2.346-5.627-5.5-5.627-3.155 0-5.5 2.345-5.5 5.627 0 3.262 2.345 5.628 5.5 5.628z" fill="#1399D9"/>
    <path d="M35.945 17.82V5.33h3.795v1.279c.746-1.002 1.897-1.577 3.495-1.577.704 0 1.151.042 1.642.213l.042 3.56c-.532-.278-1.193-.427-1.94-.427-2.024 0-3.24 1.151-3.24 3.048v6.395h-3.794zM25.706 18.119c-3.581 0-6.075-2.75-6.075-6.544 0-3.795 2.494-6.544 6.075-6.544 1.641 0 2.835.575 3.581 1.577V5.329h3.794V17.82h-3.794v-1.279c-.746 1.002-1.94 1.578-3.581 1.578zm.597-3.24c1.854 0 3.048-1.386 3.048-3.304 0-1.919-1.194-3.304-3.048-3.304-1.812 0-2.963 1.385-2.963 3.304 0 1.918 1.151 3.304 2.963 3.304zM9.294 18.247C3.944 18.247 0 14.389 0 9.124 0 3.858 3.943 0 9.294 0c4.775 0 7.972 2.878 8.676 6.544h-3.923C13.642 4.882 11.873 3.56 9.38 3.56c-3.155 0-5.5 2.323-5.5 5.564 0 3.218 2.345 5.563 5.5 5.563 2.494 0 4.54-1.641 4.839-3.219h3.922c-.533 3.496-4.029 6.779-8.846 6.779z" fill="#283A7D"/>
</svg>
