<svg width="100" height="49" viewBox="0 0 100 49" fill="none" xmlns="http://www.w3.org/2000/svg">
    <path d="M18.976 32.139a8.241 8.241 0 1 0-.001 16.483 8.241 8.241 0 0 0 8.242-8.241 8.251 8.251 0 0 0-8.24-8.242zM79.783 32.139a8.241 8.241 0 1 0 8.241 8.241 8.251 8.251 0 0 0-8.241-8.241z" fill="#fff"/>
    <path d="m96.665 21.49-9.317-4.222a1.818 1.818 0 0 1-.785-.69L78.56 3.808A8.072 8.072 0 0 0 71.68 0H39.158a8.17 8.17 0 0 0-6.462 3.198l-10.302 13.53a1.826 1.826 0 0 1-.97.646L4.181 22.08A5.675 5.675 0 0 0 0 27.51v6.291c0 3.108 2.59 5.565 5.698 5.565h1.457c.516-6.53 6.227-11.403 12.756-10.887a11.858 11.858 0 0 1 10.887 10.887h37.164c.514-6.53 6.224-11.404 12.753-10.89a11.858 11.858 0 0 1 10.89 10.89h2.697c3.107 0 5.698-2.456 5.698-5.564v-7.18a5.679 5.679 0 0 0-3.335-5.133z" fill="#fff"/>
</svg>
