<svg width="76" height="76" viewBox="0 0 76 76" fill="none" xmlns="http://www.w3.org/2000/svg">
    <path d="M34.833 47.5h6.334v6.333h-6.334V47.5zm0-25.333h6.334v19h-6.334v-19zm3.135-15.834C20.488 6.333 6.333 20.52 6.333 38c0 17.48 14.155 31.667 31.635 31.667C55.48 69.667 69.667 55.48 69.667 38c0-17.48-14.187-31.667-31.699-31.667zm.032 57c-13.997 0-25.333-11.336-25.333-25.333 0-13.997 11.336-25.333 25.333-25.333 13.997 0 25.333 11.336 25.333 25.333 0 13.997-11.336 25.333-25.333 25.333z" fill="#B7B7B9"/>
</svg>
