<svg width="20" height="20" viewBox="0 0 20 20" fill="none" xmlns="http://www.w3.org/2000/svg">
    <path d="M13.314 12.06h-.659l-.233-.226a5.417 5.417 0 0 0 1.233-4.45c-.391-2.316-2.324-4.166-4.658-4.45A5.42 5.42 0 0 0 2.94 8.994c.283 2.333 2.133 4.266 4.45 4.658a5.417 5.417 0 0 0 4.45-1.233l.225.233v.659l3.541 3.541a.88.88 0 0 0 1.242 0 .88.88 0 0 0 0-1.241l-3.533-3.55zm-5 0a3.745 3.745 0 0 1-3.75-3.75 3.745 3.745 0 0 1 3.75-3.75 3.745 3.745 0 0 1 3.75 3.75 3.745 3.745 0 0 1-3.75 3.75z" fill="#17171C"/>
    <path d="M13.314 12.06h-.659l-.233-.226a5.417 5.417 0 0 0 1.233-4.45c-.391-2.316-2.324-4.166-4.658-4.45A5.42 5.42 0 0 0 2.94 8.994c.283 2.333 2.133 4.266 4.45 4.658a5.417 5.417 0 0 0 4.45-1.233l.225.233v.659l3.541 3.541a.88.88 0 0 0 1.242 0 .88.88 0 0 0 0-1.241l-3.533-3.55zm-5 0a3.745 3.745 0 0 1-3.75-3.75 3.745 3.745 0 0 1 3.75-3.75 3.745 3.745 0 0 1 3.75 3.75 3.745 3.745 0 0 1-3.75 3.75z" fill="#000" fill-opacity=".2"/>
    <path d="M13.314 12.06h-.659l-.233-.226a5.417 5.417 0 0 0 1.233-4.45c-.391-2.316-2.324-4.166-4.658-4.45A5.42 5.42 0 0 0 2.94 8.994c.283 2.333 2.133 4.266 4.45 4.658a5.417 5.417 0 0 0 4.45-1.233l.225.233v.659l3.541 3.541a.88.88 0 0 0 1.242 0 .88.88 0 0 0 0-1.241l-3.533-3.55zm-5 0a3.745 3.745 0 0 1-3.75-3.75 3.745 3.745 0 0 1 3.75-3.75 3.745 3.745 0 0 1 3.75 3.75 3.745 3.745 0 0 1-3.75 3.75z" fill="#000" fill-opacity=".2"/>
    <path d="M13.314 12.06h-.659l-.233-.226a5.417 5.417 0 0 0 1.233-4.45c-.391-2.316-2.324-4.166-4.658-4.45A5.42 5.42 0 0 0 2.94 8.994c.283 2.333 2.133 4.266 4.45 4.658a5.417 5.417 0 0 0 4.45-1.233l.225.233v.659l3.541 3.541a.88.88 0 0 0 1.242 0 .88.88 0 0 0 0-1.241l-3.533-3.55zm-5 0a3.745 3.745 0 0 1-3.75-3.75 3.745 3.745 0 0 1 3.75-3.75 3.745 3.745 0 0 1 3.75 3.75 3.745 3.745 0 0 1-3.75 3.75z" fill="#000" fill-opacity=".2"/>
    <path d="M13.314 12.06h-.659l-.233-.226a5.417 5.417 0 0 0 1.233-4.45c-.391-2.316-2.324-4.166-4.658-4.45A5.42 5.42 0 0 0 2.94 8.994c.283 2.333 2.133 4.266 4.45 4.658a5.417 5.417 0 0 0 4.45-1.233l.225.233v.659l3.541 3.541a.88.88 0 0 0 1.242 0 .88.88 0 0 0 0-1.241l-3.533-3.55zm-5 0a3.745 3.745 0 0 1-3.75-3.75 3.745 3.745 0 0 1 3.75-3.75 3.745 3.745 0 0 1 3.75 3.75 3.745 3.745 0 0 1-3.75 3.75z" fill="#000" fill-opacity=".2"/>
</svg>
