<svg width="24" height="27" viewBox="0 0 24 27" fill="none" xmlns="http://www.w3.org/2000/svg">
    <path d="m9 17.86 3.88-4.366L9 9.13a1.222 1.222 0 0 1 0-1.586.92.92 0 0 1 1.41 0L15 12.707c.39.439.39 1.147 0 1.586l-4.59 5.164a.92.92 0 0 1-1.41 0c-.38-.439-.39-1.159 0-1.598z" fill="#17171C"/>
    <path d="m9 17.86 3.88-4.366L9 9.13a1.222 1.222 0 0 1 0-1.586.92.92 0 0 1 1.41 0L15 12.707c.39.439.39 1.147 0 1.586l-4.59 5.164a.92.92 0 0 1-1.41 0c-.38-.439-.39-1.159 0-1.598z" fill="#000" fill-opacity=".2"/>
    <path d="m9 17.86 3.88-4.366L9 9.13a1.222 1.222 0 0 1 0-1.586.92.92 0 0 1 1.41 0L15 12.707c.39.439.39 1.147 0 1.586l-4.59 5.164a.92.92 0 0 1-1.41 0c-.38-.439-.39-1.159 0-1.598z" fill="#000" fill-opacity=".2"/>
    <path d="m9 17.86 3.88-4.366L9 9.13a1.222 1.222 0 0 1 0-1.586.92.92 0 0 1 1.41 0L15 12.707c.39.439.39 1.147 0 1.586l-4.59 5.164a.92.92 0 0 1-1.41 0c-.38-.439-.39-1.159 0-1.598z" fill="#000" fill-opacity=".2"/>
    <path d="m9 17.86 3.88-4.366L9 9.13a1.222 1.222 0 0 1 0-1.586.92.92 0 0 1 1.41 0L15 12.707c.39.439.39 1.147 0 1.586l-4.59 5.164a.92.92 0 0 1-1.41 0c-.38-.439-.39-1.159 0-1.598z" fill="#000" fill-opacity=".2"/>
</svg>
