<svg width="24" height="24" viewBox="0 0 24 24" fill="none" xmlns="http://www.w3.org/2000/svg">
    <path d="M7.33 2.885c.479-.49 1.252-.49 1.73 0l8.224 8.41c.382.39.382 1.02 0 1.41l-8.223 8.41c-.48.49-1.252.49-1.731 0a1.27 1.27 0 0 1 0-1.77l7.177-7.34-7.187-7.35c-.47-.49-.47-1.28.01-1.77z" fill="#17171C"/>
    <path d="M7.33 2.885c.479-.49 1.252-.49 1.73 0l8.224 8.41c.382.39.382 1.02 0 1.41l-8.223 8.41c-.48.49-1.252.49-1.731 0a1.27 1.27 0 0 1 0-1.77l7.177-7.34-7.187-7.35c-.47-.49-.47-1.28.01-1.77z" fill="#000" fill-opacity=".2"/>
    <path d="M7.33 2.885c.479-.49 1.252-.49 1.73 0l8.224 8.41c.382.39.382 1.02 0 1.41l-8.223 8.41c-.48.49-1.252.49-1.731 0a1.27 1.27 0 0 1 0-1.77l7.177-7.34-7.187-7.35c-.47-.49-.47-1.28.01-1.77z" fill="#000" fill-opacity=".2"/>
    <path d="M7.33 2.885c.479-.49 1.252-.49 1.73 0l8.224 8.41c.382.39.382 1.02 0 1.41l-8.223 8.41c-.48.49-1.252.49-1.731 0a1.27 1.27 0 0 1 0-1.77l7.177-7.34-7.187-7.35c-.47-.49-.47-1.28.01-1.77z" fill="#000" fill-opacity=".2"/>
    <path d="M7.33 2.885c.479-.49 1.252-.49 1.73 0l8.224 8.41c.382.39.382 1.02 0 1.41l-8.223 8.41c-.48.49-1.252.49-1.731 0a1.27 1.27 0 0 1 0-1.77l7.177-7.34-7.187-7.35c-.47-.49-.47-1.28.01-1.77z" fill="#000" fill-opacity=".2"/>
</svg>
