<svg width="66" height="66" viewBox="0 0 66 66" fill="none" xmlns="http://www.w3.org/2000/svg">
    <path d="M33 5.5C17.82 5.5 5.5 17.82 5.5 33S17.82 60.5 33 60.5 60.5 48.18 60.5 33 48.18 5.5 33 5.5zM33 55c-12.128 0-22-9.873-22-22 0-12.128 9.872-22 22-22 12.127 0 22 9.872 22 22 0 12.127-9.873 22-22 22zm10.67-32.203L27.5 38.968l-5.17-5.17a2.739 2.739 0 0 0-3.877 0 2.739 2.739 0 0 0 0 3.878l7.122 7.123a2.739 2.739 0 0 0 3.878 0l18.122-18.123a2.739 2.739 0 0 0 0-3.878 2.772 2.772 0 0 0-3.905 0z" fill="#1399D9"/>
</svg>
