<svg width="28" height="28" viewBox="0 0 28 28" fill="none" xmlns="http://www.w3.org/2000/svg">
    <path d="M22.937 4.862c-3.08-2.1-6.884-1.12-8.937 1.283-2.053-2.403-5.857-3.395-8.937-1.283-1.633 1.12-2.66 3.01-2.73 5.005-.163 4.526 3.85 8.155 9.975 13.72l.117.105a2.329 2.329 0 0 0 3.138-.012l.129-.116c6.125-5.554 10.126-9.182 9.975-13.709-.07-1.983-1.097-3.873-2.73-4.993zm-8.82 16.986-.117.117-.117-.116C8.33 16.82 4.667 13.495 4.667 10.123c0-2.333 1.75-4.083 4.083-4.083 1.797 0 3.547 1.155 4.165 2.753h2.182c.606-1.598 2.356-2.753 4.153-2.753 2.333 0 4.083 1.75 4.083 4.083 0 3.372-3.663 6.697-9.216 11.726z" fill="#B7B7B9"/>
</svg>
