<svg width="28" height="28" viewBox="0 0 30 28" fill="none" xmlns="http://www.w3.org/2000/svg">
    <path d="M19.97 16.883h-.987l-.35-.315c1.5-1.633 2.275-3.861 1.85-6.23-.587-3.243-3.487-5.833-6.987-6.23-5.288-.606-9.738 3.547-9.088 8.482.425 3.267 3.2 5.973 6.675 6.522 2.538.396 4.925-.327 6.675-1.727l.338.327v.921l5.312 4.959c.513.478 1.35.478 1.863 0a1.175 1.175 0 0 0 0-1.739l-5.3-4.97zm-7.5 0c-3.112 0-5.624-2.345-5.624-5.25s2.512-5.25 5.625-5.25c3.112 0 5.625 2.345 5.625 5.25s-2.513 5.25-5.625 5.25z" fill="#B7B7B9"/>
</svg>
