<svg width="36" height="36" viewBox="0 0 36 36" fill="none" xmlns="http://www.w3.org/2000/svg">
    <path d="M18.258 25.852 18 25.695l-.259.156-6.224 3.75h-.001a.997.997 0 0 1-1.49-1.078l1.65-7.08.069-.294-.228-.198-5.505-4.77c-.672-.581-.308-1.679.567-1.748h.003l7.245-.615.3-.026.118-.277L17.08 6.84v-.002c.339-.806 1.5-.806 1.839 0v.001l2.835 6.69.118.278.3.026 7.245.615h.003c.875.07 1.239 1.167.567 1.748l-5.505 4.77-.228.198.069.294 1.65 7.08a.996.996 0 0 1-1.49 1.079l-6.225-3.765z" stroke="#B7B7B9"/>
</svg>
