<svg width="98" height="97" viewBox="0 0 98 97" fill="none" xmlns="http://www.w3.org/2000/svg">
<rect y="0.435059" width="98" height="95.6605" fill="#ffffff"/>
<path fill-rule="evenodd" clip-rule="evenodd" d="M52.3442 42.9907C52.3442 39.4912 49.4594 36.6544 45.9008 36.6544C42.3423 36.6544 39.4575 39.4912 39.4575 42.9907C39.4575 46.4901 42.3423 49.3269 45.9008 49.3269C49.4594 49.3269 52.3442 46.4901 52.3442 42.9907ZM57.1767 42.9907C57.1767 36.8667 52.1283 31.9022 45.9008 31.9022C39.6734 31.9022 34.625 36.8667 34.625 42.9907C34.625 49.1146 39.6734 54.0791 45.9008 54.0791C52.1283 54.0791 57.1767 49.1146 57.1767 42.9907Z" fill="#283A7D"/>
<path d="M57.9397 37.8726C57.7238 37.8726 57.55 37.7 57.5371 37.4881C57.3428 34.2949 54.7436 31.7389 51.4965 31.5478C51.2809 31.5351 51.1055 31.3642 51.1055 31.1519L51.1055 27.1686C51.1055 26.9562 51.2813 26.7834 51.4971 26.7907C57.4132 26.9892 62.1727 31.6696 62.3746 37.4875C62.382 37.6997 62.2063 37.8726 61.9904 37.8726L57.9397 37.8726Z" fill="#1399D9"/>
<path d="M61.3145 69.5434V63.8046H63.0871V64.3922C63.4357 63.9319 63.9734 63.6675 64.7203 63.6675C66.0747 63.6675 67.0009 64.637 67.0009 66.2235V69.5434H65.2282V66.5173C65.2282 65.6457 64.8697 65.1658 64.2025 65.1658C63.5054 65.1658 63.0871 65.7045 63.0871 66.5956V69.5434H61.3145Z" fill="#1399D9"/>
<path d="M55.9033 69.7404C53.3838 69.7404 51.5215 67.9678 51.5215 65.5489C51.5215 63.13 53.3838 61.3574 55.9033 61.3574C58.4229 61.3574 60.2851 63.13 60.2851 65.5489C60.2851 67.9678 58.4229 69.7404 55.9033 69.7404ZM55.9033 68.1343C57.3772 68.1343 58.4727 67.0473 58.4727 65.5489C58.4727 64.0408 57.3772 62.9635 55.9033 62.9635C54.4294 62.9635 53.334 64.0408 53.334 65.5489C53.334 67.0473 54.4294 68.1343 55.9033 68.1343Z" fill="#1399D9"/>
<path d="M46.791 69.5434V63.8046H48.5637V64.3922C48.9122 63.9319 49.45 63.6675 50.1969 63.6675C50.5255 63.6675 50.7347 63.6871 50.9637 63.7654L50.9836 65.4009C50.7347 65.2736 50.4259 65.205 50.0774 65.205C49.1313 65.205 48.5637 65.7338 48.5637 66.6054V69.5434H46.791Z" fill="#283A7D"/>
<path d="M42.0101 69.6805C40.337 69.6805 39.1719 68.4172 39.1719 66.674C39.1719 64.9308 40.337 63.6675 42.0101 63.6675C42.7769 63.6675 43.3346 63.9319 43.6832 64.3922V63.8046H45.4558V69.5434H43.6832V68.9558C43.3346 69.4161 42.7769 69.6805 42.0101 69.6805ZM42.2889 68.1919C43.1554 68.1919 43.713 67.5554 43.713 66.674C43.713 65.7926 43.1554 65.156 42.2889 65.156C41.4425 65.156 40.9047 65.7926 40.9047 66.674C40.9047 67.5554 41.4425 68.1919 42.2889 68.1919Z" fill="#283A7D"/>
<path d="M34.342 69.7404C31.8424 69.7404 30 67.9678 30 65.5489C30 63.13 31.8424 61.3574 34.342 61.3574C36.5727 61.3574 38.0665 62.6795 38.3952 64.3639H36.5628C36.3736 63.6001 35.547 62.9929 34.3818 62.9929C32.9079 62.9929 31.8125 64.0603 31.8125 65.5489C31.8125 67.0277 32.9079 68.1049 34.3818 68.1049C35.547 68.1049 36.503 67.3508 36.6425 66.6262H38.4749C38.2259 68.2322 36.5927 69.7404 34.342 69.7404Z" fill="#283A7D"/>
</svg>
