<svg width="48" height="48" viewBox="0 0 48 48" fill="none" xmlns="http://www.w3.org/2000/svg">
    <path d="M34 5c-5.52 0-10 4.48-10 10s4.48 10 10 10 10-4.48 10-10S39.52 5 34 5zm0 12c-.56 0-1-.44-1-1v-6c0-.56.44-1 1-1s1 .44 1 1v6c0 .56-.44 1-1 1zm1 3c0 .56-.44 1-1 1s-1-.44-1-1 .44-1 1-1 1 .44 1 1zm2 23c1.64 0 3-1.34 3-3V27.64c-2.1 1.02-4.32 1.38-6.18 1.36.12.32.18.66.18 1 0 1.66-1.34 3-3 3s-3-1.34-3-3c0-.78.3-1.48.78-2.02A14.064 14.064 0 0 1 21.36 21H9.62l2.08-6H20c0-1.38.2-2.74.58-4H11c-1.32 0-2.42.84-2.84 2.02L4.22 24.36c-.14.42-.22.86-.22 1.32V40c0 1.66 1.34 3 3 3s3-1.34 3-3v-1h24v1c0 1.66 1.36 3 3 3zM13 33c-1.66 0-3-1.34-3-3s1.34-3 3-3 3 1.34 3 3-1.34 3-3 3z" fill="#1399D9"/>
</svg>
