<svg width="48" height="48" viewBox="0 0 48 48" fill="none" xmlns="http://www.w3.org/2000/svg">
    <path d="M8 10h4v6h20v-6h4v10h4V10c0-2.2-1.8-4-4-4h-8.36C26.8 3.68 24.6 2 22 2c-2.6 0-4.8 1.68-5.64 4H8c-2.2 0-4 1.8-4 4v28c0 2.2 1.8 4 4 4h10v-4H8V10zm14-4c1.1 0 2 .9 2 2s-.9 2-2 2-2-.9-2-2 .9-2 2-2z" fill="#1399D9"/>
    <path d="M38.6 37.8c.8-1.4 1.4-3 1.4-4.8 0-5-4-9-9-9s-9 4-9 9 4 9 9 9c1.8 0 3.4-.6 4.8-1.4l5.4 5.4 2.8-2.8-5.4-5.4zM31 38c-2.8 0-5-2.2-5-5s2.2-5 5-5 5 2.2 5 5-2.2 5-5 5z" fill="#1399D9"/>
</svg>
