<svg width="48" height="48" viewBox="0 0 48 48" fill="none" xmlns="http://www.w3.org/2000/svg">
    <path d="M28 18h-8c-1.1 0-2-.9-2-2s.9-2 2-2h8c1.1 0 2 .9 2 2s-.9 2-2 2zM28 24h-8c-1.1 0-2-.9-2-2s.9-2 2-2h8c1.1 0 2 .9 2 2s-.9 2-2 2z" fill="#1399D9"/>
    <path d="m39 7-3-3-3 3-3-3-3 3-3-3-3 3-3-3-3 3-3-3v28H8c-1.1 0-2 .9-2 2v4c0 3.32 2.68 6 6 6h24c3.32 0 6-2.68 6-6V4l-3 3zm-9 33H12c-1.1 0-2-.9-2-2v-2h20v4zm8-2c0 1.1-.9 2-2 2s-2-.9-2-2v-4c0-1.1-.9-2-2-2H16V10h22v28z" fill="#1399D9"/>
    <path d="M34 18a2 2 0 1 0 0-4 2 2 0 0 0 0 4zM34 24a2 2 0 1 0 0-4 2 2 0 0 0 0 4z" fill="#1399D9"/>
</svg>
