<svg width="28" height="36" viewBox="0 0 28 36" fill="none" xmlns="http://www.w3.org/2000/svg">
    <g clip-path="url(#0ic211104a)">
        <path d="M14.41 8.299c1.55 0 3.51-1.099 4.667-2.558 1.046-1.326 1.811-3.183 1.811-5.04 0-.246-.019-.512-.075-.701-1.736.076-3.808 1.213-5.058 2.747-.99 1.175-1.886 2.994-1.886 4.87 0 .265.038.55.075.644.112.019.28.038.467.038zM8.942 36c2.128 0 3.062-1.497 5.712-1.497 2.651 0 3.286 1.44 5.638 1.44s3.864-2.236 5.338-4.433c1.643-2.52 2.315-4.984 2.371-5.097-.15-.038-4.592-1.952-4.592-7.276 0-4.623 3.51-6.707 3.696-6.86-2.315-3.485-5.843-3.561-6.795-3.561-2.594 0-4.722 1.648-6.066 1.648-1.438 0-3.342-1.553-5.6-1.553C4.349 8.81 0 12.524 0 19.516c0 4.339 1.624 8.943 3.603 11.918 1.698 2.52 3.192 4.585 5.338 4.585V36z" fill="#fff"/>
    </g>
    <defs>
        <clipPath id="0ic211104a">
            <path fill="#fff" d="M0 0h28v36H0z"/>
        </clipPath>
    </defs>
</svg>
