<svg width="36" height="36" viewBox="0 0 36 36" fill="none" xmlns="http://www.w3.org/2000/svg">
    <g clip-path="url(#5xvc6p0asa)" fill-rule="evenodd" clip-rule="evenodd">
        <path d="M35.28 18.4c0-1.28-.12-2.5-.32-3.68H18v6.96h9.68a8.3 8.3 0 0 1-3.6 5.44v4.52h5.82c3.4-3.14 5.36-7.74 5.36-13.24h.02z" fill="#4285F4"/>
        <path d="M18 36c4.86 0 8.94-1.62 11.92-4.36l-5.82-4.52c-1.62 1.08-3.68 1.72-6.1 1.72-4.68 0-8.66-3.16-10.08-7.42h-6v4.66C4.88 31.96 10.96 36 18 36z" fill="#34A853"/>
        <path d="M7.92 21.42c-.36-1.08-.56-2.24-.56-3.42 0-1.18.2-2.34.56-3.42V9.92h-6a17.952 17.952 0 0 0 0 16.16l6.02-4.66h-.02z" fill="#FBBC05"/>
        <path d="M18 7.16c2.64 0 5.02.9 6.88 2.7l5.16-5.16C26.92 1.8 22.84.02 18 .02 10.96 0 4.88 4.04 1.92 9.92l6.02 4.66c1.42-4.26 5.38-7.42 10.08-7.42H18z" fill="#EA4335"/>
    </g>
    <defs>
        <clipPath id="5xvc6p0asa">
            <path fill="#fff" d="M0 0h36v36H0z"/>
        </clipPath>
    </defs>
</svg>
