<svg width="36" height="33" viewBox="0 0 36 33" fill="none" xmlns="http://www.w3.org/2000/svg">
    <path d="M0 .049c.021 10.976 0 21.943 0 32.92 4.11.02 8.23.02 12.339 0 .063-5.442-.074-10.882.074-16.323 1.345 1.884 2.584 3.853 3.961 5.716 2.299 3.578 4.904 6.944 7.118 10.575 4.14.105 8.282 0 12.423.063.043-.519.085-1.027.085-1.545-.063-10.469.053-20.948-.053-31.417-4.099-.032-8.187 0-12.286-.021-.032 5.472.032 10.945-.032 16.407-3.802-5.41-7.403-10.977-11.29-16.322C8.24-.088 4.109.049 0 .038v.01z" fill="#fff"/>
</svg>
