<svg width="60" height="60" viewBox="0 0 60 60" fill="none" xmlns="http://www.w3.org/2000/svg">
    <path d="M33.676 24.758s-2.78-.554-4.562 4.805a.855.855 0 0 1-.667.584c-1.139.2-3.948.82-5.89 2.278-.442.33-.684.868-.684 1.422v3.016c0 .91.737 1.641 1.646 1.641h29.799c.927 0 1.682-.755 1.682-1.682v-2.868c0-.998-.478-1.96-1.322-2.48-.608-.377-1.481-.696-2.727-.79a1.119 1.119 0 0 1-.973-.738c-.508-1.475-1.907-4.763-4.32-5.205M5 38.51h11.136c.926 0 1.682-.756 1.682-1.682v-2.869c0-.997-.478-1.959-1.322-2.478-.608-.378-1.482-.697-2.727-.791a1.119 1.119 0 0 1-.974-.738c-.507-1.475-2.464-4.763-4.878-5.205" stroke="#949497" stroke-width="1.5" stroke-miterlimit="10" stroke-linecap="round"/>
    <path d="M11.249 42.76a3.246 3.246 0 1 0 0-6.493 3.246 3.246 0 0 0 0 6.492zM29.08 42.76a3.246 3.246 0 1 0 0-6.493 3.246 3.246 0 0 0 0 6.492zM47.413 42.76a3.246 3.246 0 1 0 0-6.493 3.246 3.246 0 0 0 0 6.492z" fill="#fff" stroke="#949497" stroke-width="1.5" stroke-miterlimit="10"/>
    <path d="M45 19.657a.75.75 0 0 0 0-1.5v1.5zm-11.364-1.28a.75.75 0 0 0 0 1.06l4.773 4.773a.75.75 0 0 0 1.061-1.06l-4.243-4.243 4.243-4.242a.75.75 0 0 0-1.06-1.061l-4.774 4.773zM45 18.157H34.167v1.5H45v-1.5z" fill="#949497"/>
    <path d="M21.667 26.854s.315-3.837 4.152-3.522M17.291 26.506s.575-7.137 8.897-7.547" stroke="#949497" stroke-width="1.5" stroke-miterlimit="10" stroke-linecap="round"/>
</svg>
