<svg width="60" height="60" viewBox="0 0 60 60" fill="none" xmlns="http://www.w3.org/2000/svg">
    <path d="M19.825 14.37c4.542.012 8.159 3.734 8.124 8.371-.029 4.602-3.722 8.33-8.228 8.301-4.478-.03-8.177-3.841-8.148-8.407.03-4.602 3.699-8.277 8.246-8.265h.006z" fill="#949497"/>
    <path d="M29.782 39.682c.248.35.484.705.734 1.088l-.525-.017c-1.436-.05-2.786-.095-4.138-.197-1.362-.107-2.683.02-4.009.713h-.001c-1.423.748-2.854 1.45-4.296 2.158-.835.41-1.674.821-2.517 1.245-.718.36-1.366.394-2.049.075l-.004-.002a19.604 19.604 0 0 0-.834-.355c-.27-.11-.52-.215-.76-.33-.703-.344-1.058-.885-1.097-1.677-.022-.467.037-.826.17-1.111.13-.275.352-.534.754-.766 3.557-2.053 7.08-4.154 10.599-6.25l.002-.002c.433-.258.894-.365 1.489-.503l.235-.055.08.05.018.011c.05.033.126.081.204.125l.007.003.006.003c2.49 1.304 4.26 3.414 5.93 5.792l.002.002zm-6.349-6.733c.24-.057.423.06.606.178.052.033.105.067.159.097 2.656 1.39 4.51 3.625 6.197 6.025l-6.962-6.3zM37.155 34.83l-.019.048c-1.106-1.546-2.213-3.002-3.463-4.347a21.4 21.4 0 0 0-2.552-2.361c.501-.829.98-1.68 1.451-2.52.212-.376.422-.75.632-1.118.246-.432.526-.722.834-.904.306-.18.684-.281 1.173-.266.637.02 1.292.015 1.931.01.362-.003.719-.006 1.063-.005h.004c.918 0 1.58.35 1.953.836.369.48.526 1.184.255 2.052-.444 1.405-.984 2.768-1.536 4.16-.21.533-.423 1.07-.633 1.615v.002c-.35.917-.71 1.827-1.093 2.797z" stroke="#949497" stroke-width="1.5"/>
    <path d="M41.41 47.715h-2.876c-.377 0-.43-.317-.555-.545-1.896-3.43-3.918-6.77-6.285-9.898-1.441-1.902-2.965-3.715-4.914-5.115-.361-.26-.272-.381.032-.587.502-.349 1.005-.698 1.456-1.115.34-.312.57-.28.911-.01 1.226.972 2.31 2.087 3.316 3.281 3.452 4.112 6.186 8.699 8.706 13.423.078.148.125.323.214.566h-.005z" fill="#949497"/>
    <path d="M33.292 16.603c0 2.008 1.571 3.582 3.547 3.573 1.963-.008 3.54-1.604 3.528-3.605-.013-1.977-1.596-3.544-3.595-3.535l-3.48 3.567zm0 0c0-1.993 1.548-3.559 3.48-3.567l-3.48 3.567z" stroke="#949497" stroke-width="1.5"/>
    <path d="M50.446 20.82c0 1.343-.005 1.316-1.346 1.665-1.74.45-3.473.936-5.128 1.66-.372.163-.587.19-.702-.28a3.338 3.338 0 0 0-.849-1.522c-.403-.423-.21-.54.2-.714a33.427 33.427 0 0 1 7.029-2.167c.67-.127.885 0 .801.666-.031.227 0 .46 0 .692h-.005z" fill="#949497"/>
</svg>
