<svg width="60" height="60" viewBox="0 0 60 60" fill="none" xmlns="http://www.w3.org/2000/svg">
    <path d="M27.667 13.415h5.034a3.25 3.25 0 0 1 3.25 3.25v2.201H24.417v-2.201a3.25 3.25 0 0 1 3.25-3.25z" fill="#fff" stroke="#949497" stroke-width="1.5"/>
    <path d="M24.454 17.76h11.46c2.9 0 5.25 2.35 5.25 5.25v18.449h-21.96v-18.45c0-2.899 2.35-5.25 5.25-5.25z" fill="#fff" stroke="#949497" stroke-width="1.5"/>
    <mask id="roccvzddka" fill="#fff">
        <path fill-rule="evenodd" clip-rule="evenodd" d="M17.86 35.02a4.239 4.239 0 0 0-.372-.664c-1.181-1.731-3.378-2.226-4.906-1.106-1.528 1.12-1.81 3.431-.627 5.162.113.166.236.32.366.464l5.262 7.842.092-.066c.367.418.905.682 1.505.682h21.157a2 2 0 0 0 1.866-1.277l5.135-6.3c.187-.16.362-.342.524-.544 1.308-1.63 1.2-3.957-.24-5.197-1.439-1.24-3.666-.922-4.974.708a4.225 4.225 0 0 0-.336.486l-2.8 3.435h-1.236c-1.39-2.041-4.68-3.476-8.517-3.476-3.837 0-7.128 1.435-8.518 3.476h-.949l-2.433-3.625z"/>
    </mask>
    <path fill-rule="evenodd" clip-rule="evenodd" d="M17.86 35.02a4.239 4.239 0 0 0-.372-.664c-1.181-1.731-3.378-2.226-4.906-1.106-1.528 1.12-1.81 3.431-.627 5.162.113.166.236.32.366.464l5.262 7.842.092-.066c.367.418.905.682 1.505.682h21.157a2 2 0 0 0 1.866-1.277l5.135-6.3c.187-.16.362-.342.524-.544 1.308-1.63 1.2-3.957-.24-5.197-1.439-1.24-3.666-.922-4.974.708a4.225 4.225 0 0 0-.336.486l-2.8 3.435h-1.236c-1.39-2.041-4.68-3.476-8.517-3.476-3.837 0-7.128 1.435-8.518 3.476h-.949l-2.433-3.625z" fill="#fff"/>
    <path d="m17.488 34.356 1.239-.846-1.239.846zm.371.664-1.37.61.053.118.072.108 1.245-.836zm-5.277-1.77-.887-1.21.887 1.21zm-.627 5.162 1.238-.846-1.238.846zm.366.464 1.246-.836-.063-.093-.075-.083-1.108 1.012zm5.262 7.842-1.245.836.864 1.287 1.258-.906-.877-1.217zm.092-.066 1.128-.989-.898-1.025-1.107.797.877 1.217zm24.528-.595-1.163-.948-.15.184-.086.222 1.399.542zm5.135-6.3-.98-1.135-.1.086-.083.102 1.163.947zm.524-.544-1.17-.938 1.17.938zm-.24-5.197-.978 1.137.979-1.137zm-4.974.708-1.17-.938 1.17.938zm-.336.486 1.162.948.07-.086.058-.096-1.29-.766zm-2.8 3.435v1.5h.712l.45-.552-1.162-.948zm-1.236 0-1.24.844.447.656h.793v-1.5zm-17.035 0v1.5h.794l.446-.656-1.24-.844zm-.949 0-1.246.836.446.664h.8v-1.5zm-4.043-3.444c.095.14.175.283.24.43l2.74-1.222a5.743 5.743 0 0 0-.502-.9l-2.478 1.692zm-2.78-.741c.726-.533 1.99-.416 2.78.741l2.478-1.691c-1.573-2.305-4.702-3.178-7.032-1.47l1.774 2.42zm-.276 3.106c-.803-1.177-.494-2.542.276-3.106l-1.774-2.42c-2.287 1.677-2.539 4.934-.98 7.218l2.478-1.692zm.236.298a2.706 2.706 0 0 1-.236-.298l-2.477 1.692c.153.224.32.434.498.63l2.215-2.024zm5.4 8.018-5.262-7.842-2.491 1.672 5.262 7.842 2.491-1.672zm-2.03-.447-.092.066 1.753 2.434.092-.066-1.754-2.434zm2.38.4a.495.495 0 0 1-.376-.172l-2.256 1.977a3.495 3.495 0 0 0 2.633 1.194v-3zm21.158 0H19.18v3h21.157v-3zm.467-.32a.5.5 0 0 1-.467.32v3a3.5 3.5 0 0 0 3.264-2.236l-2.797-1.084zm2.561 1.49 5.136-6.3-2.326-1.895-5.135 6.299 2.325 1.895zm4.953-6.112c.256-.221.496-.469.714-.742l-2.34-1.876c-.105.13-.217.246-.334.347l1.96 2.27zm.714-.742c1.731-2.158 1.716-5.423-.43-7.272l-1.958 2.274c.733.63.932 2.02.048 3.122l2.34 1.877zm-.43-7.272c-2.189-1.884-5.376-1.272-7.124.907l2.34 1.877c.868-1.082 2.135-1.105 2.826-.51l1.958-2.274zm-7.124.907a5.71 5.71 0 0 0-.456.659l2.58 1.531c.063-.107.136-.212.217-.313l-2.34-1.877zm-.329.477-2.8 3.434 2.325 1.896 2.8-3.435-2.325-1.895zm-2.873 5.882h1.236v-3h-1.236v3zm-8.517-3.476c3.567 0 6.273 1.347 7.277 2.82l2.48-1.688c-1.777-2.609-5.65-4.132-9.757-4.132v3zm-7.278 2.82c1.004-1.473 3.71-2.82 7.278-2.82v-3c-4.107 0-7.98 1.523-9.757 4.132l2.48 1.688zm-2.189.656h.95v-3h-.95v3zm-3.678-4.29 2.432 3.626 2.492-1.672-2.433-3.625-2.491 1.672z" fill="#949497" mask="url(#roccvzddka)"/>
    <g clip-path="url(#pq9wripg1b)" fill="#949497">
        <path d="M28.946 21.878H26.92a.508.508 0 0 0-.507.507c0 .278.228.506.507.506h2.027a.508.508 0 0 0 .507-.506.508.508 0 0 0-.507-.507zM26.919 23.905h-1.521a.508.508 0 0 0-.507.507c0 .279.228.507.507.507h1.52a.508.508 0 0 0 .508-.507.508.508 0 0 0-.507-.507zM26.412 31.002h1.52a.508.508 0 0 0 .507-.507.508.508 0 0 0-.507-.507h-1.52a.508.508 0 0 0-.507.507c0 .278.228.507.507.507zM31.344 25.735c.38.117.659.396.795.74l2.165-3.604a1.156 1.156 0 0 0-1.78-1.44l-1.738 1.628c-.203.187-.32.456-.32.735v1.992a1.27 1.27 0 0 1 .878-.05zM29.762 26.576a1.28 1.28 0 0 1 .451-.643h-4.166a1.155 1.155 0 0 0-.32 2.265l2.287.654c.268.076.557.041.8-.106l1.364-.816a1.26 1.26 0 0 1-.416-1.354zM35.642 29.79l-1.156-2.078a1.039 1.039 0 0 0-.638-.492l-1.612-.405c.015.162 0 .334-.05.502a1.256 1.256 0 0 1-1.212.897c-.31 0-.502-.112-.507-.112v2.9c-.558 0-1.014.456-1.014 1.013h3.041c0-.557-.456-1.013-1.014-1.013v-2.17l2.337 2.337a1.153 1.153 0 0 0 1.632 0c.365-.365.446-.928.193-1.379z"/>
        <path d="M30.75 27.671c.401.122.827-.101.948-.506a.758.758 0 0 0-.506-.948.758.758 0 0 0-.948.507c-.122.4.106.826.507.947z"/>
    </g>
    <defs>
        <clipPath id="pq9wripg1b">
            <path fill="#fff" transform="translate(24.257 20.485)" d="M0 0h12.165v12.165H0z"/>
        </clipPath>
    </defs>
</svg>
