<svg width="60" height="60" viewBox="0 0 60 60" fill="none" xmlns="http://www.w3.org/2000/svg">
    <circle cx="30" cy="30" r="18.5" stroke="#283A7D"/>
    <circle cx="30" cy="30" r="14.542" stroke="#283A7D"/>
    <circle cx="30" cy="30" r="2.931" stroke="#283A7D"/>
    <path d="M27.89 16.146v6.201c.087 1.364-.476 3.721-3.431 2.243l-5.938-3.298M31.896 44.107v-6.201c-.088-1.364.475-3.721 3.43-2.243l5.938 3.298M43.079 35.867l-5.704-3.292c-1.298-.647-3.185-2.386-.348-4.162l6.002-3.391M16.83 25.133l5.403 3.044c1.23.593 3.008 2.24.27 4.09l-5.788 3.554M41.305 21.51l-5.84 2.956c-1.244.728-3.718 1.35-3.661-1.992l.425-6.87M18.76 39.04l5.277-3.257c1.114-.79 3.416-1.55 3.71 1.742l.311 6.785" stroke="#283A7D" stroke-linecap="round"/>
</svg>
