<svg width="60" height="60" viewBox="0 0 60 60" fill="none" xmlns="http://www.w3.org/2000/svg">
    <path d="M19.858 45.793h-1.392l2.554-7.25h1.602l2.564 7.25h-1.392L23.193 44h-2.734l-.6 1.793zm.951-2.844h2.034l-.992-2.924h-.06l-.982 2.924zm8.627.56v-3.154h1.272v5.438h-1.231v-.961h-.06c-.25.6-.822 1.031-1.633 1.031-1.072 0-1.813-.741-1.823-2.043v-3.465h1.282v3.265c0 .69.41 1.132 1.032 1.132.56 0 1.162-.411 1.162-1.242zm5.182-3.154v.982h-1.071v2.824c0 .52.26.63.58.63.15 0 .401-.01.561-.02v1.042c-.15.03-.4.05-.72.05-.962 0-1.703-.47-1.693-1.492v-3.035h-.781v-.98h.781v-1.303h1.272v1.302h1.071zm3.27 5.548c-1.583 0-2.604-1.121-2.604-2.804 0-1.692 1.021-2.814 2.604-2.814 1.592 0 2.603 1.122 2.603 2.814 0 1.683-1.011 2.804-2.603 2.804zm.01-1.021c.87 0 1.301-.791 1.301-1.793 0-.991-.43-1.793-1.301-1.793-.892 0-1.322.802-1.322 1.793 0 1.002.43 1.793 1.322 1.793z" fill="#949497"/>
    <path d="m10.586 17.207 12-6M10.586 22.207l12-6M10.586 27.207l12-6M10.586 32.207l12-6M10.586 37.207l12-6M29.139 16.494c1.6-5.6 6.333-5.666 8.5-5 5 1 9.166 4.5 10.5 6.5 3.5 5.25-1 10-4 12-7.6 5.2-11.956 3.164-13.5 1-2.5-3.5-2.334-10.833-1.5-14.5z" stroke="#949497" stroke-width="1.5" stroke-linecap="round"/>
</svg>
