<svg width="60" height="60" viewBox="0 0 60 60" fill="none" xmlns="http://www.w3.org/2000/svg">
    <path d="M46.421 22.68s4.62 0 4.62 4.62M46.407 17.412s8.593-.013 9.9 9.9" stroke="#949497" stroke-width="1.5" stroke-miterlimit="10" stroke-linecap="round"/>
    <path d="M24.676 44.481c-3.499-.083-7.53-.162-11.561-.288-.765-.024-1.524-.233-2.287-.35-.247-.039-.5-.098-.745-.083-2.32.134-4.64.281-6.959.425-.126.007-.252.02-.378.022-.626.015-.96-.28-.961-.886-.006-2.921-.006-5.842 0-8.763.001-.648.311-.922 1.13-1.055 2.017-.327 3.595-1.88 3.85-3.838.093-.707.083-1.426.136-2.138.098-1.303.244-2.595.731-3.83 1.1-2.779 3.294-4.316 6.329-4.19 4.121.172 8.24.426 12.356.721 3.864.276 7.696.827 11.491 1.597 2.787.566 4.78 2.096 5.856 4.714 1.138 2.769 1.364 5.637.868 8.557-.259 1.528-.62 3.041-.983 4.55-.787 3.269-2.816 4.76-6.383 4.82-3.985.066-7.972.015-12.49.015zm.544-1.992v.103c3.969 0 7.937.04 11.906-.013 2.922-.04 4.026-1.29 4.531-3.393.418-1.735.816-3.48 1.075-5.243.356-2.422.085-4.801-.947-7.063-.797-1.748-2.176-2.828-4.069-3.16a181.389 181.389 0 0 0-8.471-1.302c-5.07-.644-10.175-.833-15.276-1.044-2.385-.099-4.06 1.068-4.67 3.335-.309 1.147-.468 2.346-.566 3.532-.28 3.387-.056 6.769.258 10.142.231 2.48 1.871 3.914 4.418 3.95 3.936.055 7.874.103 11.81.154l.001.002z" fill="#949497"/>
</svg>
