<svg width="60" height="60" viewBox="0 0 60 60" fill="none" xmlns="http://www.w3.org/2000/svg">
    <path d="M15.127 28.686 9.5 47.176M44.873 28.686l5.627 18.49" stroke="#283A7D" stroke-width="1.5" stroke-linecap="round" stroke-linejoin="round"/>
    <path d="M41.63 19.843h-1.122l-2.886-6.28a1.612 1.612 0 0 0-.611-.697c-.27-.17-.584-.259-.905-.258H23.894c-.321-.001-.636.089-.905.258-.27.17-.482.412-.611.697l-2.887 6.28H18.37a.845.845 0 0 0-.588.236.79.79 0 0 0-.243.568c0 .213.088.418.243.569.156.15.367.235.588.235h.83v8.04c0 .426.175.835.487 1.136.312.302.734.471 1.175.471h2.492c.44 0 .863-.17 1.175-.47.311-.302.486-.711.486-1.138v-1.608h9.97v1.608c0 .427.174.836.486 1.137.311.302.734.471 1.175.471h2.492c.44 0 .863-.17 1.175-.47.311-.302.486-.711.486-1.138v-8.039h.83c.221 0 .433-.085.588-.235a.791.791 0 0 0 .244-.569.79.79 0 0 0-.244-.568.845.845 0 0 0-.587-.236zm-16.615 4.824h-1.66a.845.845 0 0 1-.588-.236.791.791 0 0 1-.244-.568.79.79 0 0 1 .244-.569.845.845 0 0 1 .587-.235h1.662c.22 0 .431.085.587.235a.79.79 0 0 1 .243.569.791.791 0 0 1-.243.568.845.845 0 0 1-.588.236zm9.97 0a.845.845 0 0 1-.588-.236.791.791 0 0 1-.244-.568.79.79 0 0 1 .244-.569.845.845 0 0 1 .587-.235h1.662c.22 0 .431.085.587.235a.79.79 0 0 1 .243.569.791.791 0 0 1-.243.568.845.845 0 0 1-.587.236h-1.662z" stroke="#283A7D" stroke-width="1.5"/>
    <path stroke="#283A7D" stroke-width="1.5" stroke-dasharray="3 3" d="M29.25 31.393v16"/>
</svg>
