<svg width="60" height="60" viewBox="0 0 60 60" fill="none" xmlns="http://www.w3.org/2000/svg">
    <path d="M27.591 13.165h5.19a3.25 3.25 0 0 1 3.25 3.25v2.284H24.34v-2.285a3.25 3.25 0 0 1 3.25-3.25z" fill="#fff" stroke="#283A7D" stroke-width="1.5"/>
    <path d="M24.316 17.561h11.74c2.9 0 5.25 2.35 5.25 5.25V41.56h-22.24V22.81c0-2.9 2.35-5.25 5.25-5.25z" fill="#fff" stroke="#283A7D" stroke-width="1.5"/>
    <mask id="hk9d9zcqpa" fill="#fff">
        <path fill-rule="evenodd" clip-rule="evenodd" d="M17.715 35.125a4.301 4.301 0 0 0-.376-.673c-1.196-1.751-3.418-2.252-4.965-1.119-1.546 1.134-1.83 3.472-.634 5.224.114.168.238.324.37.469l5.325 7.935.085-.06c.367.419.906.684 1.507.684h21.456a2 2 0 0 0 1.877-1.308l5.184-6.36a4.19 4.19 0 0 0 .53-.55c1.323-1.65 1.215-4.004-.242-5.258-1.457-1.255-3.71-.934-5.033.716a4.28 4.28 0 0 0-.341.493l-2.833 3.475h-1.251c-1.407-2.066-4.736-3.517-8.619-3.517s-7.212 1.451-8.618 3.517h-.96l-2.462-3.668z"/>
    </mask>
    <path fill-rule="evenodd" clip-rule="evenodd" d="M17.715 35.125a4.301 4.301 0 0 0-.376-.673c-1.196-1.751-3.418-2.252-4.965-1.119-1.546 1.134-1.83 3.472-.634 5.224.114.168.238.324.37.469l5.325 7.935.085-.06c.367.419.906.684 1.507.684h21.456a2 2 0 0 0 1.877-1.308l5.184-6.36a4.19 4.19 0 0 0 .53-.55c1.323-1.65 1.215-4.004-.242-5.258-1.457-1.255-3.71-.934-5.033.716a4.28 4.28 0 0 0-.341.493l-2.833 3.475h-1.251c-1.407-2.066-4.736-3.517-8.619-3.517s-7.212 1.451-8.618 3.517h-.96l-2.462-3.668z" fill="#fff"/>
    <path d="m17.34 34.452 1.238-.846-1.239.846zm.375.673-1.37.61.052.118.072.107 1.246-.835zm-5.34-1.792-.887-1.21.886 1.21zm-.635 5.224-1.24.846 1.24-.846zm.37.469 1.246-.836-.062-.093-.076-.083-1.108 1.012zm5.325 7.935-1.245.836.864 1.288 1.258-.907-.877-1.217zm.085-.06 1.13-.988-.899-1.028-1.108.798.877 1.217zm24.84-.624-1.162-.948-.159.194-.086.235 1.407.519zm5.184-6.36-.98-1.135-.1.086-.082.102 1.162.948zm.53-.55-1.17-.938 1.17.938zm-.242-5.258-.979 1.136.98-1.136zm-5.033.716-1.17-.938 1.17.938zm-.341.493 1.162.947.07-.086.058-.096-1.29-.765zm-2.833 3.475v1.5h.712l.45-.553-1.162-.947zm-1.251 0-1.24.844.447.656h.793v-1.5zm-17.238 0v1.5h.794l.446-.656-1.24-.844zm-.96 0-1.245.835.445.665h.8v-1.5zM16.1 35.298c.097.141.178.288.245.438l2.74-1.222a5.79 5.79 0 0 0-.507-.908L16.1 35.298zm-2.839-.755c.745-.546 2.035-.423 2.84.755l2.477-1.692c-1.587-2.325-4.743-3.204-7.09-1.483l1.773 2.42zm-.282 3.168c-.818-1.198-.505-2.59.282-3.168l-1.773-2.42c-2.306 1.69-2.56 4.975-.987 7.28l2.478-1.692zm.24.303a2.746 2.746 0 0 1-.24-.303L10.5 39.403c.154.226.322.437.502.634l2.215-2.023zm5.462 8.111-5.325-7.935-2.491 1.671 5.325 7.936 2.49-1.672zm-2.038-.442-.085.061 1.754 2.434.085-.06-1.754-2.435zm2.384.402a.495.495 0 0 1-.377-.172l-2.26 1.974a3.496 3.496 0 0 0 2.637 1.198v-3zm21.456 0H19.027v3h21.456v-3zm.47-.327a.5.5 0 0 1-.47.327v3c1.51 0 2.793-.955 3.285-2.29l-2.815-1.037zm2.57 1.466 5.184-6.358-2.325-1.896-5.184 6.359 2.325 1.895zm5.002-6.17c.258-.224.499-.473.72-.748l-2.341-1.877c-.107.133-.22.25-.34.353l1.96 2.271zm.72-.748c1.746-2.178 1.73-5.471-.434-7.334l-1.958 2.273c.75.646.95 2.062.05 3.184l2.341 1.877zm-.434-7.334c-2.206-1.899-5.42-1.284-7.183.915l2.34 1.877c.884-1.102 2.177-1.129 2.885-.519l1.958-2.273zm-7.183.915a5.767 5.767 0 0 0-.46.665l2.58 1.531c.065-.11.138-.216.22-.32l-2.34-1.876zm-.333.483-2.833 3.475 2.325 1.895 2.833-3.475-2.325-1.895zm-2.921 5.923h1.25v-3h-1.25v3zm-8.619-3.517c3.613 0 6.359 1.363 7.379 2.86l2.48-1.688c-1.794-2.633-5.707-4.172-9.859-4.172v3zm-7.379 2.86c1.02-1.497 3.766-2.86 7.38-2.86v-3c-4.153 0-8.066 1.54-9.86 4.172l2.48 1.689zm-2.2.657h.96v-3h-.96v3zM16.47 35.96l2.462 3.668 2.49-1.671-2.46-3.668-2.492 1.671z" fill="#283A7D" mask="url(#hk9d9zcqpa)"/>
    <path d="M26.918 22.966c.733.88 1.759 3.077 0 4.836-.732.733-1.758 2.55 0 3.956M30.435 22.966c.733.88 1.759 3.077 0 4.836-.732.733-1.758 2.55 0 3.956M33.952 22.966c.733.88 1.759 3.077 0 4.836-.732.733-1.758 2.55 0 3.956" stroke="#283A7D" stroke-width="1.5" stroke-linecap="round"/>
</svg>
