<svg width="60" height="60" viewBox="0 0 60 60" fill="none" xmlns="http://www.w3.org/2000/svg">
    <path d="M30 11.536C19.801 11.536 11.536 19.8 11.536 30c0 10.2 8.265 18.465 18.464 18.465 10.2 0 18.465-8.266 18.465-18.465S40.199 11.536 30 11.536zm0 29.543c-6.117 0-11.079-4.962-11.079-11.079 0-6.117 4.962-11.079 11.08-11.079 6.116 0 11.078 4.962 11.078 11.08 0 6.116-4.962 11.078-11.079 11.078z" stroke="#283A7D" stroke-width="1.5" stroke-miterlimit="10"/>
    <path d="M18.921 29.84c0-1.538.366-2.875.93-4.204 3.362-1.437 12.133-3.17 20.246 0 .631 1.39.975 2.58.975 4.21 0 1.129-.168 2.216-.483 3.244-2.538.235-6.15 1.604-7.057 7.245-1.115.369-2.303.584-3.539.584-1.175 0-2.31-.188-3.377-.53-.584-2.33-2.323-6.567-7.231-7.387-.296-1-.464-2.06-.464-3.162z" stroke="#283A7D" stroke-width="1.5" stroke-miterlimit="10" stroke-linejoin="bevel"/>
    <path d="M26.475 27.449c0-.074.04-.148.114-.215.067-.06.148-.1.235-.12.087-.021.168 0 .235.053.282.221.49.483.624.779.128.275.188.57.188.886 0 .208-.067.423-.208.658-.08.134-.228.336-.443.59-.174.216-.295.37-.362.478-.108.167-.162.322-.162.456 0 .228.04.443.114.625.081.215.209.402.383.57.06.054.087.135.067.222a.446.446 0 0 1-.14.222.44.44 0 0 1-.242.134.32.32 0 0 1-.269-.094 2.162 2.162 0 0 1-.524-.826 2.366 2.366 0 0 1-.14-.84c0-.248.08-.51.234-.778.094-.161.256-.383.477-.658.155-.195.262-.336.316-.423.087-.135.134-.255.134-.356 0-.208-.04-.41-.134-.611a1.617 1.617 0 0 0-.39-.524.285.285 0 0 1-.1-.242l-.007.014zM29.16 27.449c0-.074.04-.148.114-.215.068-.06.148-.1.235-.12.088-.021.168 0 .235.053.282.221.49.483.625.779.128.275.188.57.188.886 0 .208-.067.423-.208.658a5.05 5.05 0 0 1-.443.59 5.64 5.64 0 0 0-.363.478c-.107.167-.161.322-.161.456 0 .228.04.443.114.625.08.215.208.402.383.57.06.054.087.135.067.222a.447.447 0 0 1-.141.222.44.44 0 0 1-.242.134.32.32 0 0 1-.268-.094 2.162 2.162 0 0 1-.524-.826 2.366 2.366 0 0 1-.141-.84c0-.248.08-.51.235-.778a5.92 5.92 0 0 1 .477-.658c.154-.195.262-.336.315-.423.087-.135.134-.255.134-.356 0-.208-.04-.41-.134-.611a1.617 1.617 0 0 0-.39-.524.286.286 0 0 1-.1-.242l-.007.014zM31.846 27.449c0-.074.04-.148.114-.215.068-.06.148-.1.236-.12.087-.021.167 0 .235.053.282.221.49.483.624.779.127.275.188.57.188.886 0 .208-.067.423-.208.658a5.05 5.05 0 0 1-.443.59c-.175.216-.296.37-.363.478-.107.167-.161.322-.161.456 0 .228.04.443.114.625.08.215.208.402.383.57.06.054.087.135.067.222a.446.446 0 0 1-.141.222.44.44 0 0 1-.242.134.32.32 0 0 1-.268-.094 2.162 2.162 0 0 1-.524-.826 2.366 2.366 0 0 1-.141-.84c0-.248.08-.51.235-.778.094-.161.255-.383.477-.658.154-.195.261-.336.315-.423.087-.135.134-.255.134-.356 0-.208-.04-.41-.134-.611a1.618 1.618 0 0 0-.39-.524.285.285 0 0 1-.1-.242l-.007.014z" fill="#283A7D"/>
</svg>
