<svg width="60" height="60" viewBox="0 0 60 60" fill="none" xmlns="http://www.w3.org/2000/svg">
    <path stroke="#949497" stroke-width="1.5" stroke-dasharray="3 3" d="M45.528 11.334v37.333"/>
    <path d="m44.799 19.76-4.56-4.56c-2.086-2.086-5.347-2.208-7.283-.272L14.928 32.956c-1.936 1.936-1.814 5.197.273 7.283l4.56 4.56c2.086 2.086 5.347 2.208 7.283.272L45.07 27.044c1.936-1.936 1.814-5.197-.272-7.284z" fill="#fff" stroke="#949497" stroke-width="1.5" stroke-miterlimit="10"/>
    <path d="m25.523 17.515 4.404 1.1 11.561 11.562.997 4.3" stroke="#949497" stroke-width="1.5" stroke-miterlimit="10" stroke-linecap="round"/>
    <path d="m34.146 29.441-3.769-3.769c-.631-.631-1.725-.562-2.442.156l-6.76 6.76c-.718.718-.788 1.812-.157 2.443l3.77 3.77c.63.63 1.724.56 2.442-.157l6.76-6.76c.718-.718.788-1.811.156-2.443z" stroke="#949497" stroke-width="1.5" stroke-miterlimit="10"/>
    <path d="m29.785 18.473-1.101 6.606M41.346 30.034l-6.606 1.101" stroke="#949497" stroke-width="1.5" stroke-miterlimit="10" stroke-linecap="round"/>
</svg>
