<svg width="60" height="60" viewBox="0 0 60 60" fill="none" xmlns="http://www.w3.org/2000/svg">
    <path d="M30 26.725c-.836-.916-2.498-2.81-4.013-5.01-.842-1.222-1.628-2.523-2.201-3.79-.577-1.277-.915-2.468-.915-3.482 0-4.3 3.24-7.693 7.13-7.693 3.889 0 7.128 3.417 7.128 7.693 0 1.008-.337 2.195-.915 3.47-.573 1.267-1.359 2.57-2.2 3.794-1.515 2.202-3.178 4.102-4.014 5.018z" stroke="#949497" stroke-width="1.5"/>
    <ellipse cx="30" cy="13.867" rx="3.939" ry="3.934" fill="#949497"/>
    <path d="M25.667 51.026V30.632L17 33.182V54l8.667-2.974zM43 51.026V30.632l-8.666 2.55V54L43 51.026z" stroke="#949497" stroke-width="1.5" stroke-linejoin="round"/>
    <path d="M25.667 51.026V30.632l8.666 2.55V54l-8.666-2.974z" stroke="#949497" stroke-width="1.5" stroke-linejoin="round"/>
</svg>
