<svg width="62" height="60" viewBox="0 0 62 60" fill="none" xmlns="http://www.w3.org/2000/svg">
    <path d="M26.088 19.37s-4.772 1.202-6.517 5.905c-.135.366-.428.653-.82.718-1.4.247-4.853 1.009-7.24 2.801-.545.406-.842 1.067-.842 1.749v3.707c0 1.117.907 2.017 2.024 2.017h36.633c1.14 0 2.068-.928 2.068-2.068v-3.526c0-1.226-.588-2.409-1.625-3.047-.748-.464-1.822-.856-3.352-.972a1.375 1.375 0 0 1-1.198-.907c-.624-1.814-.774-5.064-6.281-6.378" stroke="#283A7D" stroke-width="1.5" stroke-miterlimit="10" stroke-linecap="round"/>
    <path d="M20.101 41.498a3.99 3.99 0 1 0 0-7.98 3.99 3.99 0 0 0 0 7.98zM41.867 41.498a3.99 3.99 0 1 0 0-7.98 3.99 3.99 0 0 0 0 7.98z" fill="#fff" stroke="#283A7D" stroke-width="1.5" stroke-miterlimit="10"/>
    <path d="M56.707 33.024c.644-.536 1.545-1.995 0-3.54M59.409 34.312c.971-.976 2.332-3.629 0-6.438M5.292 29.162c-.644.536-1.545 1.995 0 3.54M2.59 27.875c-.971.975-2.332 3.628 0 6.437" stroke="#283A7D" stroke-linecap="round"/>
</svg>
