<svg width="60" height="60" viewBox="0 0 60 60" fill="none" xmlns="http://www.w3.org/2000/svg">
    <path d="M27.591 12.915h5.19a3.5 3.5 0 0 1 3.5 3.5v2.534H24.09v-2.535a3.5 3.5 0 0 1 3.5-3.5z" fill="#fff" stroke="#283A7D"/>
    <path d="M24.316 17.311h11.74a5.5 5.5 0 0 1 5.5 5.5V41.81h-22.74V22.81a5.5 5.5 0 0 1 5.5-5.5z" fill="#fff" stroke="#283A7D"/>
    <mask id="6mkt477coa" fill="#fff">
        <path fill-rule="evenodd" clip-rule="evenodd" d="M17.715 35.125a4.301 4.301 0 0 0-.376-.673c-1.196-1.751-3.418-2.252-4.965-1.119-1.546 1.134-1.83 3.472-.634 5.224.114.168.238.324.37.469l5.325 7.935.085-.06c.367.419.906.684 1.507.684h21.456a2 2 0 0 0 1.878-1.31l5.183-6.358c.189-.162.367-.346.53-.55 1.323-1.65 1.215-4.004-.242-5.259-1.457-1.254-3.71-.933-5.034.717-.126.158-.24.323-.34.492l-2.834 3.476h-1.25c-1.407-2.066-4.736-3.517-8.619-3.517s-7.212 1.451-8.618 3.517h-.96l-2.462-3.668z"/>
    </mask>
    <path fill-rule="evenodd" clip-rule="evenodd" d="M17.715 35.125a4.301 4.301 0 0 0-.376-.673c-1.196-1.751-3.418-2.252-4.965-1.119-1.546 1.134-1.83 3.472-.634 5.224.114.168.238.324.37.469l5.325 7.935.085-.06c.367.419.906.684 1.507.684h21.456a2 2 0 0 0 1.878-1.31l5.183-6.358c.189-.162.367-.346.53-.55 1.323-1.65 1.215-4.004-.242-5.259-1.457-1.254-3.71-.933-5.034.717-.126.158-.24.323-.34.492l-2.834 3.476h-1.25c-1.407-2.066-4.736-3.517-8.619-3.517s-7.212 1.451-8.618 3.517h-.96l-2.462-3.668z" fill="#fff"/>
    <path d="m17.34 34.452.825-.564-.826.564zm.375.673-.913.407.035.078.047.072.83-.557zm-5.34-1.792-.592-.806.591.806zm-.635 5.224-.826.564.826-.564zm.37.469.83-.558-.04-.062-.051-.055-.739.675zm5.325 7.935-.83.557.576.859.839-.604-.585-.812zm.085-.06.753-.659-.599-.685-.739.532.585.811zm24.84-.625-.774-.632-.106.13-.058.157.939.345zm5.184-6.359-.653-.757-.067.058-.055.068.775.631zm.53-.55-.78-.625.78.625zm-.242-5.259.652-.758-.652.758zm-5.034.717-.78-.626.78.626zm-.34.492.774.632.047-.057.038-.064-.86-.51zm-2.834 3.476v1h.475l.3-.369-.775-.631zm-1.25 0-.827.563.298.437h.529v-1zm-17.238 0v1h.53l.297-.438-.826-.562zm-.96 0-.83.557.297.443h.533v-1zm-3.663-3.777c.114.166.21.34.289.516l1.826-.815a5.292 5.292 0 0 0-.463-.829l-1.652 1.128zm-3.548-.876c1.012-.742 2.614-.493 3.548.876l1.652-1.128c-1.457-2.134-4.301-2.887-6.382-1.361l1.183 1.613zm-.4 3.853c-.943-1.383-.64-3.09.4-3.853l-1.182-1.613C9.731 34.03 9.466 37 10.913 39.12l1.652-1.128zm.284.358a3.25 3.25 0 0 1-.284-.358l-1.651 1.128c.14.206.294.4.458.579l1.477-1.349zm5.417 8.053-5.325-7.936-1.661 1.115 5.325 7.935 1.66-1.114zm-1.33-.315-.085.06 1.169 1.624.085-.061-1.17-1.623zm2.09.496a.995.995 0 0 1-.753-.343l-1.506 1.316a2.995 2.995 0 0 0 2.26 1.027v-2zm21.457 0H19.027v2h21.456v-2zm.94-.654a1 1 0 0 1-.94.654v2a3 3 0 0 0 2.816-1.964l-1.877-.69zm1.713.977 5.183-6.359-1.55-1.263-5.183 6.358 1.55 1.264zm5.062-6.234c.235-.202.455-.43.656-.681l-1.56-1.252c-.126.157-.261.297-.403.42l1.307 1.513zm.656-.681c1.606-2.003 1.559-4.982-.37-6.643l-1.305 1.516c.986.849 1.156 2.578.115 3.876l1.56 1.25zm-.37-6.643c-1.956-1.683-4.85-1.166-6.466.85l1.56 1.25c1.03-1.284 2.644-1.409 3.601-.584l1.305-1.516zm-6.466.85a5.278 5.278 0 0 0-.42.607l1.72 1.02c.076-.129.163-.255.26-.376l-1.56-1.252zm-.336.485-2.833 3.476 1.55 1.263 2.833-3.475-1.55-1.264zm-3.308 5.108h1.25v-2h-1.25v2zm-8.619-3.517c3.703 0 6.643 1.392 7.792 3.08L39.2 38.23c-1.664-2.444-5.382-3.954-9.445-3.954v2zm-7.792 3.08c1.149-1.688 4.089-3.08 7.792-3.08v-2c-4.062 0-7.78 1.51-9.445 3.954l1.653 1.126zm-1.787.437h.96v-2h-.96v2zm-3.291-4.111 2.46 3.668 1.662-1.115-2.462-3.668-1.66 1.115z" fill="#283A7D" mask="url(#6mkt477coa)"/>
    <path d="M24.82 23.845c1.172 0 3.517 1.495 3.517 7.474M35.811 23.845c-1.172 0-3.517 1.495-3.517 7.474" stroke="#283A7D" stroke-linecap="round"/>
</svg>
