<svg width="60" height="60" viewBox="0 0 60 60" fill="none" xmlns="http://www.w3.org/2000/svg">
    <path d="M35.285 54.474h-10.57c-5.013 0-9.017-4.08-8.797-8.973l.974-21.381c.211-4.594 4.083-8.21 8.797-8.21h8.621c4.706 0 8.587 3.616 8.797 8.21l.975 21.381c.22 4.893-3.775 8.973-8.797 8.973z" stroke="#949497" stroke-width="1.5" stroke-miterlimit="10"/>
    <path d="M35.737 47.383H24.144a1.194 1.194 0 0 1-1.197-1.197V38.09c0-.664.533-1.197 1.198-1.197h11.592c.664 0 1.197.533 1.197 1.197v8.096c0 .664-.533 1.197-1.197 1.197z" stroke="#949497" stroke-width="1.5" stroke-miterlimit="10"/>
    <path d="m27.328 31.804-.622-.418.622.418zm3.07-1.364v-.75.75zm2.692 3.06a.75.75 0 1 0 1.5 0h-1.5zm-5.494 3.06v-2.999h-1.5v3h1.5zm0-2.999c0-.522.124-.995.355-1.34l-1.246-.834c-.437.652-.609 1.438-.609 2.174h1.5zm.354-1.338c.312-.464.958-1.033 2.448-1.033v-1.5c-1.962 0-3.087.795-3.692 1.696l1.244.837zm2.448-1.783-.001.75h-.002H30.414l.084.005c.076.005.19.015.328.035.279.041.639.123.988.278.35.155.663.373.888.673.219.292.388.705.388 1.32h1.5c0-.916-.261-1.65-.688-2.22-.42-.56-.967-.916-1.479-1.143a5.374 5.374 0 0 0-1.378-.392 5.477 5.477 0 0 0-.627-.055H30.4c-.001 0-.002 0-.002.75z" fill="#949497"/>
    <path d="M27.319 11.54s3.06-3.06 6.12 0M23.821 8.06s5.683-5.7 13.114 0" stroke="#949497" stroke-width="1.5" stroke-miterlimit="10" stroke-linecap="round"/>
    <circle cx="30.343" cy="41.806" r="1.748" fill="#949497"/>
    <rect x="23.326" y="18.876" width="13.349" height="2.966" rx="1.483" fill="#949497"/>
</svg>
