<svg width="60" height="60" viewBox="0 0 60 60" fill="none" xmlns="http://www.w3.org/2000/svg">
    <path d="M23.39 22.768s-4.672.546-6.334 6.735c-.14.421-.484.744-.927.819-1.581.28-5.482 1.15-8.178 3.193C7.336 33.978 7 34.73 7 35.508v4.228c0 1.274 1.024 2.3 2.286 2.3h41.378c1.287 0 2.336-1.06 2.336-2.358v-4.02c0-1.399-.664-2.747-1.836-3.475-.844-.53-2.057-.976-3.786-1.109a1.556 1.556 0 0 1-1.352-1.034c-.705-2.068-1.835-5.183-6-7.296" stroke="#283A7D" stroke-width="1.5" stroke-miterlimit="10" stroke-linecap="round"/>
    <path d="M17.654 48c2.49 0 4.507-2.037 4.507-4.55s-2.018-4.55-4.507-4.55c-2.49 0-4.508 2.037-4.508 4.55S15.165 48 17.654 48zM42.24 48c2.49 0 4.507-2.037 4.507-4.55S44.73 38.9 42.24 38.9c-2.49 0-4.508 2.037-4.508 4.55S39.751 48 42.24 48z" fill="#fff" stroke="#283A7D" stroke-width="1.5" stroke-miterlimit="10"/>
    <path d="M28.599 26.477a.75.75 0 1 0 1.5 0h-1.5zM29.349 12v-.75a.75.75 0 0 0-.75.75h.75zm13.233.53a.75.75 0 0 0 0-1.06l-4.773-4.773a.75.75 0 1 0-1.061 1.06L40.991 12l-4.243 4.243a.75.75 0 0 0 1.06 1.06l4.774-4.773zM30.099 26.477V12h-1.5v14.477h1.5zm-.75-13.727H42.05v-1.5H29.35v1.5z" fill="#283A7D"/>
</svg>
