<svg width="60" height="60" viewBox="0 0 60 60" fill="none" xmlns="http://www.w3.org/2000/svg">
    <rect x="13.75" y="14.945" width="15.5" height="28.25" rx="2.25" stroke="#283A7D" stroke-width="1.5"/>
    <path d="m14.063 17.383 5.312 4.25M28.938 17.383l-5.313 4.25M14.063 26.945l5.312 4.25M28.938 26.945l-5.313 4.25M14.063 36.508l5.312 4.25M28.938 36.508l-5.313 4.25M28.938 37.57c0-2.656 6.375-3.187 6.375 0v5.844c0 3.188 5.843 3.188 5.843 0v-9.031M38.5 34.383H43.813" stroke="#283A7D" stroke-width="1.5" stroke-linejoin="round"/>
    <circle cx="41.156" cy="28.539" r="5.094" stroke="#283A7D" stroke-width="1.5"/>
    <path d="M42.234 27.608a6.015 6.015 0 0 1-.041.254c-.041.221-.093.427-.158.597a.9.9 0 0 1-.159.296c-.291.291-.674.251-.858.068-.182-.183-.221-.568.068-.858a.9.9 0 0 1 .294-.158c.17-.064.377-.117.598-.158.087-.016.173-.03.256-.041z" fill="#000" stroke="#283A7D" stroke-width="1.5"/>
</svg>
