<svg width="28" height="28" viewBox="0 0 28 28" fill="none" xmlns="http://www.w3.org/2000/svg">
    <path d="M27.067 11.609h-1.26l-3.244-7.473a1.89 1.89 0 0 0-.686-.828A1.822 1.822 0 0 0 20.86 3H7.14a1.822 1.822 0 0 0-1.017.308 1.89 1.89 0 0 0-.686.828l-3.244 7.473H.933c-.247 0-.485.1-.66.28a.968.968 0 0 0-.273.676c0 .254.098.497.273.677.175.179.413.28.66.28h.934v9.565c0 .507.196.994.546 1.353.35.358.825.56 1.32.56h2.8c.495 0 .97-.202 1.32-.56.35-.36.547-.846.547-1.353v-1.913h11.2v1.913c0 .507.197.994.547 1.353.35.358.825.56 1.32.56h2.8c.495 0 .97-.202 1.32-.56.35-.36.546-.846.546-1.353v-9.565h.934c.247 0 .485-.101.66-.28a.969.969 0 0 0 .273-.677.968.968 0 0 0-.273-.676.922.922 0 0 0-.66-.28zM8.4 17.348H6.533a.922.922 0 0 1-.66-.28.969.969 0 0 1-.273-.677c0-.253.098-.497.273-.676a.922.922 0 0 1 .66-.28H8.4c.248 0 .485.1.66.28.175.18.273.423.273.676a.969.969 0 0 1-.273.677.922.922 0 0 1-.66.28zm11.2 0a.922.922 0 0 1-.66-.28.969.969 0 0 1-.273-.677c0-.253.098-.497.273-.676a.923.923 0 0 1 .66-.28h1.867c.247 0 .485.1.66.28.175.18.273.423.273.676a.969.969 0 0 1-.273.677.922.922 0 0 1-.66.28H19.6z" fill="#B7B7B9"/>
    <path d="M19.6 9.57h-1.105l1.075-2.935a.482.482 0 0 0-.076-.503.4.4 0 0 0-.134-.1.366.366 0 0 0-.318.009.406.406 0 0 0-.13.106.458.458 0 0 0-.082.155l-1.2 3.269h-2.06l-1.2-3.269a.437.437 0 0 0-.147-.2.373.373 0 0 0-.223-.075.373.373 0 0 0-.223.075.437.437 0 0 0-.147.2l-1.2 3.269h-2.06l-1.2-3.269a.456.456 0 0 0-.082-.155.405.405 0 0 0-.13-.106.368.368 0 0 0-.452.091.487.487 0 0 0-.076.502l1.075 2.937H8.4a.381.381 0 0 0-.283.13.469.469 0 0 0-.117.313c0 .117.042.23.117.313.075.083.177.13.283.13h1.43l1.2 3.268c.03.082.081.151.147.2A.373.373 0 0 0 11.4 14c.08 0 .157-.026.223-.075a.437.437 0 0 0 .147-.2l1.2-3.268h2.06l1.2 3.268c.03.082.081.151.147.2A.373.373 0 0 0 16.6 14c.08 0 .157-.026.223-.075a.437.437 0 0 0 .147-.2l1.2-3.268h1.43a.38.38 0 0 0 .283-.13.468.468 0 0 0 .117-.313.468.468 0 0 0-.117-.314.381.381 0 0 0-.283-.13zm-8.2 2.81-.705-1.923h1.41l-.705 1.922zm1.895-2.81L14 7.649l.705 1.923h-1.41zm3.305 2.81-.705-1.923h1.41l-.705 1.922z" fill="#fff"/>
</svg>
