<svg width="46" height="46" viewBox="0 0 46 46" fill="none" xmlns="http://www.w3.org/2000/svg">
    <path fill-rule="evenodd" clip-rule="evenodd" d="M38.334 5.75H7.666a3.845 3.845 0 0 0-3.833 3.833v26.834a3.845 3.845 0 0 0 3.833 3.833h30.666a3.845 3.845 0 0 0 3.834-3.833V9.583a3.845 3.845 0 0 0-3.834-3.833zm0 30.667H7.666V9.583h30.666v26.834z" fill="#42ADE1"/>
    <path fill-rule="evenodd" clip-rule="evenodd" d="M37.203 19.972 34.48 17.25l-6.076 6.076-2.702-2.722L23 23.307l5.405 5.443 8.798-8.778z" fill="#42ADE1"/>
    <path d="M19.167 13.417H9.583v3.833h9.584v-3.833zM19.167 21.083H9.583v3.834h9.584v-3.834zM19.167 28.75H9.583v3.833h9.584V28.75z" fill="#42ADE1"/>
</svg>
