<svg width="46" height="46" viewBox="0 0 46 46" fill="none" xmlns="http://www.w3.org/2000/svg">
    <path d="M36.416 26.833V11.5a3.845 3.845 0 0 0-3.833-3.833H5.75A3.845 3.845 0 0 0 1.917 11.5v15.333a3.845 3.845 0 0 0 3.833 3.834h26.833a3.845 3.845 0 0 0 3.834-3.834zm-3.833 0H5.75V11.5h26.833v15.333zM19.167 13.417a5.742 5.742 0 0 0-5.75 5.75 5.742 5.742 0 0 0 5.75 5.75 5.742 5.742 0 0 0 5.75-5.75 5.742 5.742 0 0 0-5.75-5.75zm24.916 0V34.5a3.845 3.845 0 0 1-3.833 3.833H7.666V34.5H40.25V13.416h3.833z" fill="#42ADE1"/>
</svg>
