<svg width="52" height="52" viewBox="0 0 52 52" fill="none" xmlns="http://www.w3.org/2000/svg">
    <path d="M26 4.333C14.04 4.333 4.334 14.04 4.334 26S14.04 47.667 26 47.667 47.667 37.96 47.667 26 37.96 4.334 26 4.334zM26 13c4.182 0 7.584 3.402 7.584 7.584 0 4.181-3.402 7.583-7.584 7.583-4.181 0-7.583-3.402-7.583-7.584C18.417 16.402 21.818 13 26 13zm0 30.334c-4.398 0-9.598-1.777-13.303-6.24A21.551 21.551 0 0 1 26 32.5c5.027 0 9.642 1.733 13.303 4.593C35.6 41.557 30.4 43.334 26 43.334z" fill="#B6DFF3"/>
</svg>
