<svg width="32" height="32" viewBox="0 0 32 32" fill="none" xmlns="http://www.w3.org/2000/svg">
    <path d="M16.001 21.333a4 4 0 1 0 0-8 4 4 0 0 0 0 8z" fill="#1399D9"/>
    <path d="M26.668 6.667h-4.227l-1.653-1.8A2.654 2.654 0 0 0 18.828 4h-5.653c-.747 0-1.467.32-1.974.867l-1.64 1.8H5.335a2.675 2.675 0 0 0-2.667 2.666v16C2.668 26.8 3.868 28 5.335 28h21.333c1.467 0 2.667-1.2 2.667-2.667v-16c0-1.466-1.2-2.666-2.667-2.666zM16.001 24a6.67 6.67 0 0 1-6.666-6.667A6.669 6.669 0 0 1 16 10.667a6.67 6.67 0 0 1 6.667 6.666A6.67 6.67 0 0 1 16.001 24z" fill="#1399D9"/>
</svg>
