<svg width="32" height="32" viewBox="0 0 32 32" fill="none" xmlns="http://www.w3.org/2000/svg">
    <path d="M27.335 16.912h2v4h-2v-4zm-3.334 0h2v4h-2v-4zm-1.333 2c0-1.107-.893-2-2-2h-1.12l2.907 2.906c.133-.28.213-.586.213-.906zm2.467-13.027a4.61 4.61 0 0 0 1.12-1.8c.213-.667-.254-1.347-.947-1.36-.453.013-.813.333-.96.773a2.456 2.456 0 0 1-1.56 1.56c-.453.147-.787.52-.787.987v.2c0 .493.36.92.854 1 2.573.413 4.48 2.667 4.48 5.36v1.973c0 .547.453 1 1 1 .546 0 1-.453 1-1v-1.986c0-2.96-1.707-5.52-4.2-6.707zm-5.654 5.227h1.894c1.4 0 2.626.986 2.626 2.733v.733c0 .547.44 1 1 1h.014c.546 0 1-.44 1-1v-1.186c0-2.414-2.134-4.214-4.627-4.214h-1.733c-1.36 0-2.587-.973-2.76-2.333-.16-1.267.613-2.267 1.733-2.573a.988.988 0 0 0 .72-.96c0-.654-.613-1.147-1.24-.96a4.466 4.466 0 0 0-3.227 4.373c.027 2.467 2.147 4.387 4.6 4.387zM5.495 6.632c-.52-.52-1.36-.52-1.88 0-.52.52-.52 1.36 0 1.88l8.386 8.4H4.668c-1.107 0-2 .893-2 2 0 1.106.893 2 2 2h11.333l8.387 8.386c.52.52 1.36.52 1.88 0 .52-.52.52-1.36 0-1.88L5.495 6.632z" fill="#1399D9"/>
</svg>
