<svg width="32" height="32" viewBox="0 0 32 32" fill="none" xmlns="http://www.w3.org/2000/svg">
    <path d="m23.772 10.162-.84-1.867-1.866-.84a.667.667 0 0 1 0-1.213l1.866-.84.84-1.867a.667.667 0 0 1 1.214 0l.84 1.867 1.866.84c.52.24.52.973 0 1.213l-1.866.84-.84 1.867c-.227.52-.974.52-1.214 0zm4.32 6.306-.426-.96a.667.667 0 0 0-1.214 0l-.426.96-.974.427a.667.667 0 0 0 0 1.213l.96.427.427.973c.24.52.973.52 1.213 0l.427-.96.973-.426a.667.667 0 0 0 0-1.214l-.96-.44zm-6.72 2.2 1.64 1.24c.534.4.68 1.147.347 1.734l-2.16 3.733a1.316 1.316 0 0 1-1.667.56l-1.906-.8c-.267.173-.56.347-.854.493l-.253 2.054a1.337 1.337 0 0 1-1.32 1.173h-4.307c-.666 0-1.24-.507-1.32-1.173l-.253-2.054a7.85 7.85 0 0 1-.853-.493l-1.907.8a1.316 1.316 0 0 1-1.667-.56l-2.16-3.733a1.344 1.344 0 0 1 .347-1.734l1.64-1.24v-.493c0-.16 0-.333.013-.493l-1.64-1.24a1.341 1.341 0 0 1-.346-1.734l2.16-3.733a1.316 1.316 0 0 1 1.666-.56l1.907.8c.267-.173.56-.347.853-.493l.254-2.054c.066-.653.64-1.16 1.306-1.16H15.2c.667 0 1.24.507 1.32 1.174l.253 2.053c.294.147.574.307.854.493l1.906-.8a1.316 1.316 0 0 1 1.667.56l2.16 3.734c.333.586.187 1.32-.347 1.733l-1.64 1.24c.014.16.014.32.014.493 0 .174 0 .32-.014.48zm-4.32-.493c0-2.213-1.786-4-4-4-2.213 0-4 1.787-4 4s1.787 4 4 4c2.214 0 4-1.787 4-4z" fill="#1399D9"/>
</svg>
